<?xml version="1.0" encoding="UTF-8" standalone="no"?>
<svg
   xmlns:dc="http://purl.org/dc/elements/1.1/"
   xmlns:cc="http://creativecommons.org/ns#"
   xmlns:rdf="http://www.w3.org/1999/02/22-rdf-syntax-ns#"
   xmlns:svg="http://www.w3.org/2000/svg"
   xmlns="http://www.w3.org/2000/svg"
   xmlns:sodipodi="http://sodipodi.sourceforge.net/DTD/sodipodi-0.dtd"
   xmlns:inkscape="http://www.inkscape.org/namespaces/inkscape"
   inkscape:export-ydpi="96"
   inkscape:export-xdpi="96"
   inkscape:export-filename="D:\Program\_GitHub\PCAB_Debugger\PCAB_Debugger_GUI\PCAB_Debugger_GUI.png"
   sodipodi:docname="PCAB_Debugger_GUI.svg"
   inkscape:version="1.0 (4035a4fb49, 2020-05-01)"
   id="svg8"
   version="1.1"
   viewBox="0 0 500 500"
   height="500"
   width="500">
  <defs
     id="defs2" />
  <sodipodi:namedview
     id="base"
     pagecolor="#ffffff"
     bordercolor="#666666"
     borderopacity="1.0"
     inkscape:pageopacity="0.0"
     inkscape:pageshadow="2"
     inkscape:zoom="0.93829922"
     inkscape:cx="240.81225"
     inkscape:cy="272.77743"
     inkscape:document-units="px"
     inkscape:current-layer="layer1"
     inkscape:document-rotation="0"
     showgrid="false"
     units="px"
     inkscape:window-width="1920"
     inkscape:window-height="1017"
     inkscape:window-x="1912"
     inkscape:window-y="1072"
     inkscape:window-maximized="1" />
  <metadata
     id="metadata5">
    <rdf:RDF>
      <cc:Work
         rdf:about="">
        <dc:format>image/svg+xml</dc:format>
        <dc:type
           rdf:resource="http://purl.org/dc/dcmitype/StillImage" />
        <dc:title />
      </cc:Work>
    </rdf:RDF>
  </metadata>
  <g
     inkscape:label="レイヤー 1"
     inkscape:groupmode="layer"
     id="layer1">
    <rect
       y="61.46212"
       x="61.46204"
       height="365.71225"
       width="365.71185"
       id="rect1404"
       style="opacity:1;fill:#008400;fill-opacity:1;stroke:#008400;stroke-width:32.015;stroke-linecap:round;stroke-linejoin:bevel;stroke-miterlimit:4;stroke-dasharray:none;stroke-opacity:1;paint-order:stroke fill markers" />
    <rect
       transform="matrix(-0.00179309,0.99999839,-0.99999812,-0.00193791,0,0)"
       y="-148.38573"
       x="62.777309"
       height="85.278206"
       width="53.193253"
       id="rect1406"
       style="opacity:1;fill:#ff8100;fill-opacity:0.997813;stroke:#ffffff;stroke-width:0;stroke-linecap:round;stroke-linejoin:bevel;stroke-miterlimit:4;stroke-dasharray:none;stroke-opacity:1;paint-order:stroke fill markers" />
    <rect
       style="opacity:1;fill:#ff8100;fill-opacity:0.997813;stroke:#ffffff;stroke-width:0;stroke-linecap:round;stroke-linejoin:bevel;stroke-miterlimit:4;stroke-dasharray:none;stroke-opacity:1;paint-order:stroke fill markers"
       id="rect1406-0"
       width="53.193253"
       height="85.278206"
       x="169.34924"
       y="-223.27867"
       transform="matrix(-0.00179309,0.99999839,-0.99999812,-0.00193791,0,0)" />
    <rect
       style="opacity:1;fill:#ff8100;fill-opacity:0.997813;stroke:#ffffff;stroke-width:0;stroke-linecap:round;stroke-linejoin:bevel;stroke-miterlimit:4;stroke-dasharray:none;stroke-opacity:1;paint-order:stroke fill markers"
       id="rect1406-2"
       width="85.109093"
       height="53.299427"
       x="62.876038"
       y="-223.02135"
       transform="matrix(-7.0042465e-4,0.99999975,-0.99998769,-0.004961,0,0)" />
    <rect
       transform="matrix(-7.0042465e-4,0.99999975,-0.99998769,-0.004961,0,0)"
       y="-116.35541"
       x="137.28856"
       height="53.299427"
       width="85.109093"
       id="rect1406-2-7"
       style="opacity:1;fill:#ff8100;fill-opacity:0.997813;stroke:#ffffff;stroke-width:0;stroke-linecap:round;stroke-linejoin:bevel;stroke-miterlimit:4;stroke-dasharray:none;stroke-opacity:1;paint-order:stroke fill markers" />
    <rect
       style="opacity:1;fill:#ff8100;fill-opacity:0.997813;stroke:#ffffff;stroke-width:0;stroke-linecap:round;stroke-linejoin:bevel;stroke-miterlimit:4;stroke-dasharray:none;stroke-opacity:1;paint-order:stroke fill markers"
       id="rect1406-01"
       width="53.193253"
       height="85.278206"
       x="265.53897"
       y="-148.7493"
       transform="matrix(-0.00179309,0.99999839,-0.99999812,-0.00193791,0,0)" />
    <rect
       transform="matrix(-0.00179309,0.99999839,-0.99999812,-0.00193791,0,0)"
       y="-223.64226"
       x="372.11084"
       height="85.278206"
       width="53.193253"
       id="rect1406-0-5"
       style="opacity:1;fill:#ff8100;fill-opacity:0.997813;stroke:#ffffff;stroke-width:0;stroke-linecap:round;stroke-linejoin:bevel;stroke-miterlimit:4;stroke-dasharray:none;stroke-opacity:1;paint-order:stroke fill markers" />
    <rect
       transform="matrix(-7.0042465e-4,0.99999975,-0.99998769,-0.004961,0,0)"
       y="-223.16341"
       x="265.63745"
       height="53.299427"
       width="85.109093"
       id="rect1406-2-8"
       style="opacity:1;fill:#ff8100;fill-opacity:0.997813;stroke:#ffffff;stroke-width:0;stroke-linecap:round;stroke-linejoin:bevel;stroke-miterlimit:4;stroke-dasharray:none;stroke-opacity:1;paint-order:stroke fill markers" />
    <rect
       style="opacity:1;fill:#ff8100;fill-opacity:0.997813;stroke:#ffffff;stroke-width:0;stroke-linecap:round;stroke-linejoin:bevel;stroke-miterlimit:4;stroke-dasharray:none;stroke-opacity:1;paint-order:stroke fill markers"
       id="rect1406-8"
       width="53.193253"
       height="85.278206"
       x="62.384403"
       y="-351.14728"
       transform="matrix(-0.00179309,0.99999839,-0.99999812,-0.00193791,0,0)" />
    <rect
       transform="matrix(-0.00179309,0.99999839,-0.99999812,-0.00193791,0,0)"
       y="-426.04022"
       x="168.95627"
       height="85.278206"
       width="53.193253"
       id="rect1406-0-7"
       style="opacity:1;fill:#ff8100;fill-opacity:0.997813;stroke:#ffffff;stroke-width:0;stroke-linecap:round;stroke-linejoin:bevel;stroke-miterlimit:4;stroke-dasharray:none;stroke-opacity:1;paint-order:stroke fill markers" />
    <rect
       transform="matrix(-7.0042465e-4,0.99999975,-0.99998769,-0.004961,0,0)"
       y="-425.7851"
       x="61.870155"
       height="53.299427"
       width="85.109093"
       id="rect1406-2-4"
       style="opacity:1;fill:#ff8100;fill-opacity:0.997813;stroke:#ffffff;stroke-width:0;stroke-linecap:round;stroke-linejoin:bevel;stroke-miterlimit:4;stroke-dasharray:none;stroke-opacity:1;paint-order:stroke fill markers" />
    <rect
       style="opacity:1;fill:#ff8100;fill-opacity:0.997813;stroke:#ffffff;stroke-width:0;stroke-linecap:round;stroke-linejoin:bevel;stroke-miterlimit:4;stroke-dasharray:none;stroke-opacity:1;paint-order:stroke fill markers"
       id="rect1406-2-7-6"
       width="85.109093"
       height="53.299427"
       x="136.28264"
       y="-319.11914"
       transform="matrix(-7.0042465e-4,0.99999975,-0.99998769,-0.004961,0,0)" />
    <rect
       transform="matrix(-0.00179309,0.99999839,-0.99999812,-0.00193791,0,0)"
       y="-351.51086"
       x="265.14606"
       height="85.278206"
       width="53.193253"
       id="rect1406-01-6"
       style="opacity:1;fill:#ff8100;fill-opacity:0.997813;stroke:#ffffff;stroke-width:0;stroke-linecap:round;stroke-linejoin:bevel;stroke-miterlimit:4;stroke-dasharray:none;stroke-opacity:1;paint-order:stroke fill markers" />
    <rect
       style="opacity:1;fill:#ff8100;fill-opacity:0.997813;stroke:#ffffff;stroke-width:0;stroke-linecap:round;stroke-linejoin:bevel;stroke-miterlimit:4;stroke-dasharray:none;stroke-opacity:1;paint-order:stroke fill markers"
       id="rect1406-0-5-8"
       width="53.193253"
       height="85.278206"
       x="371.7179"
       y="-426.40381"
       transform="matrix(-0.00179309,0.99999839,-0.99999812,-0.00193791,0,0)" />
    <rect
       style="opacity:1;fill:#ff8100;fill-opacity:0.997813;stroke:#ffffff;stroke-width:0;stroke-linecap:round;stroke-linejoin:bevel;stroke-miterlimit:4;stroke-dasharray:none;stroke-opacity:1;paint-order:stroke fill markers"
       id="rect1406-2-8-8"
       width="85.109093"
       height="53.299427"
       x="264.63153"
       y="-425.92709"
       transform="matrix(-7.0042465e-4,0.99999975,-0.99998769,-0.004961,0,0)" />
    <rect
       transform="matrix(-7.0042465e-4,0.99999975,-0.99998769,-0.004961,0,0)"
       y="-319.26117"
       x="339.04401"
       height="53.299427"
       width="85.109093"
       id="rect1406-2-7-1-5"
       style="opacity:1;fill:#ff8100;fill-opacity:0.997813;stroke:#ffffff;stroke-width:0;stroke-linecap:round;stroke-linejoin:bevel;stroke-miterlimit:4;stroke-dasharray:none;stroke-opacity:1;paint-order:stroke fill markers" />
    <rect
       transform="matrix(-0.00224136,0.99999749,-0.9999988,-0.00155032,0,0)"
       y="-255.52478"
       x="238.61986"
       height="21.319534"
       width="10.63866"
       id="rect1406-2-7-6-6"
       style="opacity:1;fill:#1d00ff;fill-opacity:0.997813;stroke:#ffffff;stroke-width:0;stroke-linecap:round;stroke-linejoin:bevel;stroke-miterlimit:4;stroke-dasharray:none;stroke-opacity:1;paint-order:stroke fill markers" />
    <rect
       style="opacity:1;fill:#ff0f00;fill-opacity:0.997813;stroke:#ffffff;stroke-width:0;stroke-linecap:round;stroke-linejoin:bevel;stroke-miterlimit:4;stroke-dasharray:none;stroke-opacity:1;paint-order:stroke fill markers"
       id="rect1406-2-7-6-6-6"
       width="21.277271"
       height="10.659959"
       x="231.27026"
       y="-393.85858"
       transform="matrix(-5.6033978e-4,0.99999984,-0.99998077,-0.00620118,0,0)" />
    <rect
       transform="matrix(-5.6033978e-4,0.99999984,-0.99998077,-0.00620118,0,0)"
       y="-105.71879"
       x="233.05707"
       height="10.659959"
       width="21.277271"
       id="rect1406-2-7-6-6-6-5"
       style="opacity:1;fill:#ff0f00;fill-opacity:0.997813;stroke:#ffffff;stroke-width:0;stroke-linecap:round;stroke-linejoin:bevel;stroke-miterlimit:4;stroke-dasharray:none;stroke-opacity:1;paint-order:stroke fill markers" />
    <rect
       inkscape:transform-center-y="-21.714036"
       inkscape:transform-center-x="36.190043"
       transform="matrix(0.70671014,0.7075032,-0.71147776,0.70270862,0,0)"
       y="198.19881"
       x="329.47195"
       height="10.659963"
       width="21.277262"
       id="rect1406-2-7-6-6-6-0"
       style="opacity:1;fill:#ff0f00;fill-opacity:0.997813;stroke:#ffffff;stroke-width:0;stroke-linecap:round;stroke-linejoin:bevel;stroke-miterlimit:4;stroke-dasharray:none;stroke-opacity:1;paint-order:stroke fill markers" />
    <path
       style="opacity:1;fill:#000000;fill-opacity:0.997813;stroke:#000000;stroke-width:0;stroke-linecap:round;stroke-linejoin:bevel;stroke-miterlimit:4;stroke-dasharray:none;stroke-opacity:1;paint-order:stroke fill markers"
       d="m 297.52142,499.58468 c -0.86752,-0.19723 -2.10962,-0.6138 -2.76027,-0.92568 -0.65061,-0.3119 -2.16668,-0.99336 -3.36901,-1.51437 -6.61352,-2.86583 -13.30674,-10.46152 -15.53256,-17.62691 -0.37053,-1.19282 -0.88283,-2.59521 -1.13845,-3.11643 -0.61581,-1.25571 -0.63807,-12.7113 -0.0263,-13.4833 0.24119,-0.30432 0.56509,-1.08563 0.71977,-1.73628 0.48756,-2.05084 2.26548,-6.27672 2.9862,-7.09779 0.38075,-0.43375 0.96654,-1.32099 1.30174,-1.97161 0.3352,-0.65064 1.17915,-1.80403 1.87545,-2.56311 0.69629,-0.75907 26.39412,-26.63351 57.10629,-57.49876 30.71218,-30.86525 55.99358,-56.50607 56.18091,-56.97963 0.19934,-0.50397 0.14066,-3.25774 -0.14153,-6.64085 -0.4663,-5.5903 -0.38114,-8.1539 0.43675,-13.1476 0.40563,-2.47662 1.34048,-5.87221 1.90749,-6.92852 0.18286,-0.34062 0.81767,-1.84892 1.41071,-3.35175 3.05385,-7.73887 10.69168,-16.97878 18.58243,-22.48027 1.99688,-1.39225 3.7292,-2.53136 3.84958,-2.53136 0.1204,0 1.06441,-0.51908 2.09785,-1.15354 3.83824,-2.3564 13.01907,-5.04826 20.19199,-5.9204 4.21554,-0.51257 11.25105,0.0675 13.64086,1.1246 3.40118,1.5045 4.55973,5.05685 2.86002,8.76947 -1.06193,2.31956 -2.87759,4.33363 -15.4006,17.08356 -9.64883,9.82363 -10.98179,11.68992 -11.23877,15.7353 -0.17597,2.76994 0.40978,6.15922 1.06448,6.15922 0.18501,0 0.45697,0.48053 0.60438,1.06782 0.31628,1.26016 13.09658,14.37275 16.43571,16.86302 3.83203,2.8579 9.02601,3.25312 12.77832,0.9723 0.66138,-0.40201 6.5136,-6.06577 13.00493,-12.58611 7.81413,-7.84906 12.36546,-12.12775 13.46861,-12.66178 2.20299,-1.06644 4.86407,-0.72863 6.37229,0.80891 2.30153,2.34627 2.42648,2.64173 2.42648,5.73751 0,1.70571 0.16655,2.9529 0.39432,2.9529 0.52916,0 0.51357,7.85941 -0.0215,10.87002 -0.22874,1.28689 -0.67235,2.89895 -0.9858,3.58234 -0.31346,0.68341 -0.56992,1.43599 -0.56992,1.6724 0,1.05948 -2.25408,6.79567 -3.87914,9.87165 -2.46749,4.67057 -5.44959,8.6075 -9.60567,12.68133 -5.9351,5.81758 -11.26148,8.90576 -20.71417,12.0099 -6.33372,2.0799 -9.45149,2.54593 -17.03261,2.54593 -3.20511,0 -6.35116,0.18255 -6.99124,0.40569 -0.71839,0.25044 -7.67964,7.0036 -18.18965,17.64594 -45.33932,45.91017 -95.96262,96.41757 -98.4737,98.24825 -1.5082,1.09953 -3.98742,2.47539 -5.50936,3.05743 -1.52194,0.58206 -2.94461,1.18622 -3.16148,1.34258 -1.44059,1.03861 -13.31993,1.53461 -16.95585,0.70798 z m 10.99526,-13.03717 c 0.89268,-0.2543 1.88922,-0.67651 2.21454,-0.93826 0.32532,-0.26174 1.16377,-0.76575 1.86327,-1.12001 1.97776,-1.00169 4.37605,-3.71984 5.95204,-6.74597 1.39743,-2.68324 1.43773,-2.88127 1.4444,-7.0978 0.007,-4.26764 -0.0176,-4.38521 -1.51669,-7.29497 -1.82444,-3.54148 -4.41699,-6.16373 -7.36076,-7.44512 -1.18619,-0.51631 -2.5838,-1.13738 -3.10581,-1.38012 -1.25179,-0.58213 -7.5462,-0.56765 -8.7514,0.02 -0.5204,0.25382 -1.92215,0.89018 -3.11498,1.41415 -3.00319,1.31919 -5.54279,3.87234 -7.3518,7.39097 -1.49301,2.90405 -1.52045,3.03572 -1.52045,7.29498 0,4.17384 0.0515,4.43746 1.3635,6.98488 2.25103,4.37048 5.79644,7.39925 10.66333,9.1094 1.13993,0.40056 7.61364,0.26558 9.22081,-0.19225 z"
       id="path1719" />
    <path
       style="opacity:1;fill:#000000;fill-opacity:0.997813;stroke:#000000;stroke-width:0;stroke-linecap:round;stroke-linejoin:bevel;stroke-miterlimit:4;stroke-dasharray:none;stroke-opacity:1;paint-order:stroke fill markers"
       d="m 308.95676,344.86883 c -16.26579,-16.33979 -29.9972,-30.21354 -30.51425,-30.83055 -0.51703,-0.61704 -1.75067,-2.8076 -2.74144,-4.86794 -1.78112,-3.70401 -1.80408,-3.80362 -2.04327,-8.87225 -0.29159,-6.17911 0.12709,-8.40371 2.37587,-12.62363 1.57613,-2.95766 2.12449,-3.65525 6.21258,-7.90317 2.44227,-2.53775 6.9844,-5.47838 9.72763,-6.29779 3.01555,-0.90072 10.76199,-0.77933 14.38802,0.2255 1.60039,0.44349 3.35084,1.15328 3.8899,1.57729 0.53904,0.42403 1.14302,0.77095 1.34217,0.77095 1.117,0 9.6637,7.74903 17.60835,15.96498 5.24833,5.42753 26.4127,26.78756 37.02975,37.37202 4.82551,4.81074 8.77368,8.89847 8.77368,9.08386 0,0.1854 -0.49935,0.81141 -1.10966,1.39114 -0.61031,0.57975 -2.35348,2.24581 -3.87372,3.70236 l -2.76408,2.64831 -29.74224,-29.95111 c -21.73878,-21.89144 -30.2032,-30.16966 -31.45517,-30.76324 -1.68974,-0.8011 -1.73244,-0.80203 -3.15458,-0.0692 -0.79291,0.40858 -1.67197,1.21336 -1.95348,1.78842 -1.25386,2.56152 -2.09499,1.61868 30.31571,33.98168 16.68165,16.65708 30.33026,30.4258 30.33026,30.59718 0,0.17136 -2.07229,2.3935 -4.60509,4.93807 l -4.60508,4.62648 -0.61969,-0.93408 c -0.34084,-0.51376 -14.06319,-14.38535 -30.49411,-30.82579 l -29.87443,-29.8917 h -1.79585 c -2.35689,0 -3.20534,0.50294 -3.66658,2.17342 -0.83239,3.01463 -1.64092,2.10535 30.72625,34.55511 16.68955,16.73216 30.34854,30.52912 30.35328,30.65994 0.0147,0.4022 -7.67232,7.53322 -8.09224,7.50706 -0.21687,-0.0135 -13.70269,-13.39349 -29.96849,-29.7333 z"
       id="path1721" />
    <path
       style="opacity:1;fill:#000000;fill-opacity:0.997813;stroke:#000000;stroke-width:0;stroke-linecap:round;stroke-linejoin:bevel;stroke-miterlimit:4;stroke-dasharray:none;stroke-opacity:1;paint-order:stroke fill markers"
       d="m 487.3876,496.78962 c -1.19284,-0.45423 -2.67038,-1.24348 -3.28343,-1.75391 -0.61304,-0.51043 -1.3009,-0.92804 -1.52854,-0.92804 -0.47416,0 -5.69309,-3.07891 -10.46417,-6.17334 -1.7871,-1.15909 -3.42846,-2.10744 -3.64748,-2.10744 -0.219,0 -0.39819,-0.16297 -0.39819,-0.36217 0,-0.19918 -0.66541,-0.76112 -1.4787,-1.24875 -1.84176,-1.10427 -7.70526,-5.50082 -11.24115,-8.42879 -4.8337,-4.00266 -7.67895,-8.42501 -8.77274,-13.63531 -0.33965,-1.61796 -0.96069,-3.65201 -1.3801,-4.52009 -0.48649,-1.00694 -6.61975,-7.46097 -16.94182,-17.82795 -8.89858,-8.9373 -16.17925,-16.40455 -16.17925,-16.59389 0,-0.58629 11.41381,-11.71287 12.01523,-11.71287 0.60589,0 4.34099,3.63536 21.50217,20.92799 5.96411,6.0098 11.64583,11.42414 12.62602,12.03184 1.12694,0.69868 2.79421,1.26281 4.53473,1.53437 3.93126,0.61336 5.18543,1.07755 8.07587,2.98891 2.69232,1.78038 4.77151,3.78157 6.32689,6.08955 0.51153,0.75906 1.04261,1.46885 1.18015,1.57729 0.13755,0.10841 0.92383,1.26183 1.74729,2.56308 0.82347,1.30127 1.61252,2.45467 1.75347,2.56311 0.14095,0.10841 0.86568,1.17309 1.61052,2.36594 0.74483,1.19283 1.47367,2.25748 1.61964,2.36594 0.24605,0.18281 0.89968,1.22181 4.74046,7.5354 0.78708,1.29386 1.69726,2.65627 2.02264,3.02761 0.32536,0.37135 0.90441,1.29623 1.28678,2.05531 0.38238,0.75908 1.42886,2.53352 2.32555,3.94322 3.4676,5.45159 3.8683,8.00129 1.7581,11.18713 -2.20675,3.33159 -5.4909,4.18052 -9.80994,2.53586 z"
       id="path1723" />
    <text
       xml:space="preserve"
       style="font-style:normal;font-weight:normal;font-size:109.091px;line-height:1.65;font-family:sans-serif;fill:#000000;fill-opacity:1;stroke:#b30923;stroke-width:5.68182;stroke-miterlimit:4;stroke-dasharray:none;stroke-opacity:1"
       x="1.0298288"
       y="84.659164"
       id="text1748"><tspan
         sodipodi:role="line"
         id="tspan1746"
         x="1.0298288"
         y="84.659164"
         style="font-style:italic;font-variant:normal;font-weight:bold;font-stretch:normal;font-size:109.091px;font-family:'Meiryo UI';-inkscape-font-specification:'Meiryo UI Bold Italic';stroke:#b30923;stroke-width:5.68182;stroke-miterlimit:4;stroke-dasharray:none;stroke-opacity:1">PCAB</tspan></text>
  </g>
  <g
     inkscape:label="レイヤー 2"
     id="layer2"
     inkscape:groupmode="layer" />
</svg>
