<?xml version="1.0" encoding="UTF-8" standalone="no"?>
<svg
   inkscape:export-ydpi="96"
   inkscape:export-xdpi="96"
   inkscape:export-filename="PCAB_Debugger_GUI_Monitor.png"
   sodipodi:docname="PCAB_Debugger_GUI_Monitor.svg"
   inkscape:version="1.3.2 (091e20e, 2023-11-25, custom)"
   id="svg8"
   version="1.1"
   viewBox="0 0 500 500"
   height="500"
   width="500"
   xml:space="preserve"
   xmlns:inkscape="http://www.inkscape.org/namespaces/inkscape"
   xmlns:sodipodi="http://sodipodi.sourceforge.net/DTD/sodipodi-0.dtd"
   xmlns="http://www.w3.org/2000/svg"
   xmlns:svg="http://www.w3.org/2000/svg"
   xmlns:rdf="http://www.w3.org/1999/02/22-rdf-syntax-ns#"
   xmlns:cc="http://creativecommons.org/ns#"
   xmlns:dc="http://purl.org/dc/elements/1.1/"><defs
     id="defs2" /><sodipodi:namedview
     id="base"
     pagecolor="#ffffff"
     bordercolor="#666666"
     borderopacity="1.0"
     inkscape:pageopacity="0.0"
     inkscape:pageshadow="2"
     inkscape:zoom="0.93829922"
     inkscape:cx="240.32845"
     inkscape:cy="272.3012"
     inkscape:document-units="px"
     inkscape:current-layer="layer3"
     inkscape:document-rotation="0"
     showgrid="false"
     units="px"
     inkscape:window-width="1920"
     inkscape:window-height="1017"
     inkscape:window-x="1912"
     inkscape:window-y="1072"
     inkscape:window-maximized="1"
     inkscape:showpageshadow="2"
     inkscape:pagecheckerboard="0"
     inkscape:deskcolor="#d1d1d1" /><metadata
     id="metadata5"><rdf:RDF><cc:Work
         rdf:about=""><dc:format>image/svg+xml</dc:format><dc:type
           rdf:resource="http://purl.org/dc/dcmitype/StillImage" /><dc:title /></cc:Work></rdf:RDF></metadata><g
     inkscape:label="レイヤー 1"
     inkscape:groupmode="layer"
     id="layer1"><rect
       y="61.46212"
       x="61.46204"
       height="365.71225"
       width="365.71185"
       id="rect1404"
       style="opacity:1;fill:#008400;fill-opacity:1;stroke:#008400;stroke-width:32.015;stroke-linecap:round;stroke-linejoin:bevel;stroke-miterlimit:4;stroke-dasharray:none;stroke-opacity:1;paint-order:stroke fill markers" /><rect
       transform="matrix(-0.00179309,0.99999839,-0.99999812,-0.00193791,0,0)"
       y="-148.38573"
       x="62.777309"
       height="85.278206"
       width="53.193253"
       id="rect1406"
       style="opacity:1;fill:#ff8100;fill-opacity:0.997813;stroke:#ffffff;stroke-width:0;stroke-linecap:round;stroke-linejoin:bevel;stroke-miterlimit:4;stroke-dasharray:none;stroke-opacity:1;paint-order:stroke fill markers" /><rect
       style="opacity:1;fill:#ff8100;fill-opacity:0.997813;stroke:#ffffff;stroke-width:0;stroke-linecap:round;stroke-linejoin:bevel;stroke-miterlimit:4;stroke-dasharray:none;stroke-opacity:1;paint-order:stroke fill markers"
       id="rect1406-0"
       width="53.193253"
       height="85.278206"
       x="169.34924"
       y="-223.27867"
       transform="matrix(-0.00179309,0.99999839,-0.99999812,-0.00193791,0,0)" /><rect
       style="opacity:1;fill:#ff8100;fill-opacity:0.997813;stroke:#ffffff;stroke-width:0;stroke-linecap:round;stroke-linejoin:bevel;stroke-miterlimit:4;stroke-dasharray:none;stroke-opacity:1;paint-order:stroke fill markers"
       id="rect1406-2"
       width="85.109093"
       height="53.299427"
       x="62.876038"
       y="-223.02135"
       transform="matrix(-7.0042465e-4,0.99999975,-0.99998769,-0.004961,0,0)" /><rect
       transform="matrix(-7.0042465e-4,0.99999975,-0.99998769,-0.004961,0,0)"
       y="-116.35541"
       x="137.28856"
       height="53.299427"
       width="85.109093"
       id="rect1406-2-7"
       style="opacity:1;fill:#ff8100;fill-opacity:0.997813;stroke:#ffffff;stroke-width:0;stroke-linecap:round;stroke-linejoin:bevel;stroke-miterlimit:4;stroke-dasharray:none;stroke-opacity:1;paint-order:stroke fill markers" /><rect
       style="opacity:1;fill:#ff8100;fill-opacity:0.997813;stroke:#ffffff;stroke-width:0;stroke-linecap:round;stroke-linejoin:bevel;stroke-miterlimit:4;stroke-dasharray:none;stroke-opacity:1;paint-order:stroke fill markers"
       id="rect1406-01"
       width="53.193253"
       height="85.278206"
       x="265.53897"
       y="-148.7493"
       transform="matrix(-0.00179309,0.99999839,-0.99999812,-0.00193791,0,0)" /><rect
       transform="matrix(-0.00179309,0.99999839,-0.99999812,-0.00193791,0,0)"
       y="-223.64226"
       x="372.11084"
       height="85.278206"
       width="53.193253"
       id="rect1406-0-5"
       style="opacity:1;fill:#ff8100;fill-opacity:0.997813;stroke:#ffffff;stroke-width:0;stroke-linecap:round;stroke-linejoin:bevel;stroke-miterlimit:4;stroke-dasharray:none;stroke-opacity:1;paint-order:stroke fill markers" /><rect
       transform="matrix(-7.0042465e-4,0.99999975,-0.99998769,-0.004961,0,0)"
       y="-223.16341"
       x="265.63745"
       height="53.299427"
       width="85.109093"
       id="rect1406-2-8"
       style="opacity:1;fill:#ff8100;fill-opacity:0.997813;stroke:#ffffff;stroke-width:0;stroke-linecap:round;stroke-linejoin:bevel;stroke-miterlimit:4;stroke-dasharray:none;stroke-opacity:1;paint-order:stroke fill markers" /><rect
       style="opacity:1;fill:#ff8100;fill-opacity:0.997813;stroke:#ffffff;stroke-width:0;stroke-linecap:round;stroke-linejoin:bevel;stroke-miterlimit:4;stroke-dasharray:none;stroke-opacity:1;paint-order:stroke fill markers"
       id="rect1406-8"
       width="53.193253"
       height="85.278206"
       x="62.384403"
       y="-351.14728"
       transform="matrix(-0.00179309,0.99999839,-0.99999812,-0.00193791,0,0)" /><rect
       transform="matrix(-0.00179309,0.99999839,-0.99999812,-0.00193791,0,0)"
       y="-426.04022"
       x="168.95627"
       height="85.278206"
       width="53.193253"
       id="rect1406-0-7"
       style="opacity:1;fill:#ff8100;fill-opacity:0.997813;stroke:#ffffff;stroke-width:0;stroke-linecap:round;stroke-linejoin:bevel;stroke-miterlimit:4;stroke-dasharray:none;stroke-opacity:1;paint-order:stroke fill markers" /><rect
       transform="matrix(-7.0042465e-4,0.99999975,-0.99998769,-0.004961,0,0)"
       y="-425.7851"
       x="61.870155"
       height="53.299427"
       width="85.109093"
       id="rect1406-2-4"
       style="opacity:1;fill:#ff8100;fill-opacity:0.997813;stroke:#ffffff;stroke-width:0;stroke-linecap:round;stroke-linejoin:bevel;stroke-miterlimit:4;stroke-dasharray:none;stroke-opacity:1;paint-order:stroke fill markers" /><rect
       style="opacity:1;fill:#ff8100;fill-opacity:0.997813;stroke:#ffffff;stroke-width:0;stroke-linecap:round;stroke-linejoin:bevel;stroke-miterlimit:4;stroke-dasharray:none;stroke-opacity:1;paint-order:stroke fill markers"
       id="rect1406-2-7-6"
       width="85.109093"
       height="53.299427"
       x="136.28264"
       y="-319.11914"
       transform="matrix(-7.0042465e-4,0.99999975,-0.99998769,-0.004961,0,0)" /><rect
       transform="matrix(-0.00179309,0.99999839,-0.99999812,-0.00193791,0,0)"
       y="-351.51086"
       x="265.14606"
       height="85.278206"
       width="53.193253"
       id="rect1406-01-6"
       style="opacity:1;fill:#ff8100;fill-opacity:0.997813;stroke:#ffffff;stroke-width:0;stroke-linecap:round;stroke-linejoin:bevel;stroke-miterlimit:4;stroke-dasharray:none;stroke-opacity:1;paint-order:stroke fill markers" /><rect
       style="opacity:1;fill:#ff8100;fill-opacity:0.997813;stroke:#ffffff;stroke-width:0;stroke-linecap:round;stroke-linejoin:bevel;stroke-miterlimit:4;stroke-dasharray:none;stroke-opacity:1;paint-order:stroke fill markers"
       id="rect1406-0-5-8"
       width="53.193253"
       height="85.278206"
       x="371.7179"
       y="-426.40381"
       transform="matrix(-0.00179309,0.99999839,-0.99999812,-0.00193791,0,0)" /><rect
       style="opacity:1;fill:#ff8100;fill-opacity:0.997813;stroke:#ffffff;stroke-width:0;stroke-linecap:round;stroke-linejoin:bevel;stroke-miterlimit:4;stroke-dasharray:none;stroke-opacity:1;paint-order:stroke fill markers"
       id="rect1406-2-8-8"
       width="85.109093"
       height="53.299427"
       x="264.63153"
       y="-425.92709"
       transform="matrix(-7.0042465e-4,0.99999975,-0.99998769,-0.004961,0,0)" /><rect
       transform="matrix(-7.0042465e-4,0.99999975,-0.99998769,-0.004961,0,0)"
       y="-319.26117"
       x="339.04401"
       height="53.299427"
       width="85.109093"
       id="rect1406-2-7-1-5"
       style="opacity:1;fill:#ff8100;fill-opacity:0.997813;stroke:#ffffff;stroke-width:0;stroke-linecap:round;stroke-linejoin:bevel;stroke-miterlimit:4;stroke-dasharray:none;stroke-opacity:1;paint-order:stroke fill markers" /><rect
       transform="matrix(-0.00224136,0.99999749,-0.9999988,-0.00155032,0,0)"
       y="-255.52478"
       x="238.61986"
       height="21.319534"
       width="10.63866"
       id="rect1406-2-7-6-6"
       style="opacity:1;fill:#1d00ff;fill-opacity:0.997813;stroke:#ffffff;stroke-width:0;stroke-linecap:round;stroke-linejoin:bevel;stroke-miterlimit:4;stroke-dasharray:none;stroke-opacity:1;paint-order:stroke fill markers" /><rect
       style="opacity:1;fill:#ff0f00;fill-opacity:0.997813;stroke:#ffffff;stroke-width:0;stroke-linecap:round;stroke-linejoin:bevel;stroke-miterlimit:4;stroke-dasharray:none;stroke-opacity:1;paint-order:stroke fill markers"
       id="rect1406-2-7-6-6-6"
       width="21.277271"
       height="10.659959"
       x="231.27026"
       y="-393.85858"
       transform="matrix(-5.6033978e-4,0.99999984,-0.99998077,-0.00620118,0,0)" /><rect
       transform="matrix(-5.6033978e-4,0.99999984,-0.99998077,-0.00620118,0,0)"
       y="-105.71879"
       x="233.05707"
       height="10.659959"
       width="21.277271"
       id="rect1406-2-7-6-6-6-5"
       style="opacity:1;fill:#ff0f00;fill-opacity:0.997813;stroke:#ffffff;stroke-width:0;stroke-linecap:round;stroke-linejoin:bevel;stroke-miterlimit:4;stroke-dasharray:none;stroke-opacity:1;paint-order:stroke fill markers" /><rect
       inkscape:transform-center-y="-21.714036"
       inkscape:transform-center-x="36.190043"
       transform="matrix(0.70671014,0.7075032,-0.71147776,0.70270862,0,0)"
       y="198.19881"
       x="329.47195"
       height="10.659963"
       width="21.277262"
       id="rect1406-2-7-6-6-6-0"
       style="opacity:1;fill:#ff0f00;fill-opacity:0.997813;stroke:#ffffff;stroke-width:0;stroke-linecap:round;stroke-linejoin:bevel;stroke-miterlimit:4;stroke-dasharray:none;stroke-opacity:1;paint-order:stroke fill markers" /><text
       xml:space="preserve"
       style="font-style:normal;font-weight:normal;font-size:109.091px;line-height:1.65;font-family:sans-serif;fill:#000000;fill-opacity:1;stroke:#b30923;stroke-width:5.68182;stroke-miterlimit:4;stroke-dasharray:none;stroke-opacity:1"
       x="1.0298288"
       y="84.659164"
       id="text1748"><tspan
         sodipodi:role="line"
         id="tspan1746"
         x="1.0298288"
         y="84.659164"
         style="font-style:italic;font-variant:normal;font-weight:bold;font-stretch:normal;font-size:109.091px;font-family:'Meiryo UI';-inkscape-font-specification:'Meiryo UI Bold Italic';stroke:#b30923;stroke-width:5.68182;stroke-miterlimit:4;stroke-dasharray:none;stroke-opacity:1">PCAB</tspan></text></g><g
     inkscape:label="レイヤー 2"
     id="layer2"
     inkscape:groupmode="layer" /><g
     inkscape:groupmode="layer"
     id="layer3"
     inkscape:label="レイヤー 3"
     transform="matrix(0.51961973,0,0,0.51961973,234.94509,248.38015)"><path
       style="fill:#8b0097;fill-opacity:1;stroke:none;stroke-width:1.20319"
       d="M 68.792309,443.7558 C 61.436428,421.4909 42.639401,364.82866 27.021149,317.83974 L -1.3757032,232.40533 -34.31349,232.29361 -67.251276,232.18189 v -29.0246 -29.02462 h 53.641249 53.641252 l 3.889344,12.22089 c 6.545736,20.56771 27.271752,83.78088 27.578076,84.11158 0.254208,0.27444 28.257984,-120.81976 74.401435,-321.727399 8.18277,-35.62761 14.94953,-64.849801 15.03726,-64.938201 0.1743,-0.17566 34.59079,121.2760111 63.65925,224.64583 l 18.34907,65.25084 22.25829,0.10091 22.25829,0.10093 1.94896,-3.11637 c 2.5522,-4.08089 9.82496,-11.71471 14.14673,-14.849 16.27634,-11.8042 37.60166,-14.18472 55.99574,-6.25075 12.41453,5.35482 22.43767,14.74991 28.50515,26.71905 4.70096,9.27345 6.36437,16.26657 6.36437,26.75627 0,5.92591 -0.17752,8.00709 -1.00211,11.74896 -5.12415,23.25248 -22.13242,40.32859 -45.10752,45.28745 -5.57233,1.20271 -18.27186,1.09861 -23.64489,-0.1938 -8.23893,-1.98178 -15.44024,-5.34111 -21.79657,-10.16786 -4.37471,-3.32196 -10.9652,-10.32471 -13.4609,-14.30288 l -1.94896,-3.1067 -43.81837,-0.0108 -43.81834,-0.0108 -0.44943,-1.41849 c -2.22633,-7.0269 -9.38541,-31.84614 -20.01756,-69.3972 -6.98372,-24.66547 -12.81276,-44.8463 -12.95339,-44.8463 -0.33234,0 -59.17473,257.321 -73.083485,319.59807 -5.883996,26.3459 -10.80096,47.9015 -10.926588,47.9015 -0.12564,0 -6.246876,-18.2167 -13.602768,-40.4817 z M 337.05282,348.78133 v -29.08934 l 1.19103,-9.2e-4 c 0.65508,-9.2e-4 3.91961,-0.20421 7.25453,-0.45163 29.11591,-2.16016 54.25621,-13.44842 73.83807,-33.15404 17.09183,-17.19988 27.86067,-39.2826 31.92657,-65.46906 1.1164,-7.1902 1.1164,-27.72661 0,-34.91681 -5.57163,-35.8841 -23.94834,-64.36887 -52.98443,-82.12839 -15.61835,-9.552759 -33.27351,-15.053949 -52.99677,-16.513369 -3.21581,-0.23795 -6.38289,-0.43312 -7.03797,-0.43369 l -1.19103,-0.001 v -29.08958 -29.08935 l 6.60486,0.30147 c 43.74072,1.9965 83.16463,18.95538 113.74585,48.92977 41.94081,41.108559 60.24944,98.975779 49.82087,157.466429 -4.00301,22.45165 -13.31802,45.62438 -26.0927,64.91013 -18.08918,27.30897 -43.98111,49.3756 -73.24463,62.42334 -20.71794,9.23753 -41.24167,14.06201 -64.22939,15.09831 l -6.60486,0.29775 z"
       id="path6" /></g></svg>
